<svg width="84" height="50" viewBox="0 0 84 50" fill="none" xmlns="http://www.w3.org/2000/svg">
    <path d="M82 43H83V42C83 36.6158 81.9395 31.2843 79.8792 26.31L79.8792 26.3099C77.8183 21.3357 74.7987 16.8158 70.9911 13.0086C67.1841 9.20141 62.6643 6.18137 57.69 4.12094C52.7157 2.0605 47.3842 1 42 1L41 1V2V42V43H42H82Z" fill="#CBD5E1" stroke="#FEFEFE" stroke-width="2"/>
    <path d="M1 42V43H2H42H43V42V2V1L42 1C36.6158 1 31.2843 2.0605 26.31 4.12094C21.3357 6.18138 16.8158 9.20143 13.0086 13.0086C9.20143 16.8158 6.18138 21.3357 4.12094 26.31C2.0605 31.2843 1 36.6158 1 42Z" fill="#F1F5F9" stroke="#FEFEFE" stroke-width="2"/>
    <path d="M13.0086 13.0086L12.3015 13.7157L13.0086 14.4228L41.2929 42.7071L43 44.4142V42V2V1H42C31.1261 1 20.6976 5.31963 13.0086 13.0086Z" fill="#F1F5F9" stroke="#FEFEFE" stroke-width="2"/>
    <path d="M70.9911 14.4228L71.6982 13.7157L70.9911 13.0086C63.3024 5.31963 52.8739 1 42 1H41V2V42V44.4142L42.7071 42.7071L70.9911 14.4228Z" fill="#E2E8F0" stroke="#FEFEFE" stroke-width="2"/>
    <path d="M14 42C14 26.536 26.536 14 42 14C57.464 14 70 26.536 70 42H14Z" fill="#FEFEFE"/>
    <path d="M42 50C46.4183 50 50 46.4183 50 42C50 37.5817 46.4183 34 42 34C37.5817 34 34 37.5817 34 42C34 46.4183 37.5817 50 42 50Z" fill="#CBD5E1"/>
    <circle cx="8" cy="42" r="6" fill="#F1F5F9"/>
    <circle cx="76" cy="42" r="6" fill="#CBD5E1"/>
    <path d="M11.3322 40.2778C10.5876 40.3089 10 40.9215 10 41.6667C10 42.4119 10.5876 43.0245 11.3322 43.0555L42 44.3333L42 39L11.3322 40.2778Z" fill="#CBD5E1"/>
</svg>
