<svg width="84" height="54" viewBox="0 0 84 54" fill="none" xmlns="http://www.w3.org/2000/svg">
    <path d="M82 43H83V42C83 36.6158 81.9395 31.2843 79.8792 26.31L79.8792 26.3099C77.8183 21.3357 74.7987 16.8158 70.9911 13.0086C67.1841 9.20141 62.6643 6.18137 57.69 4.12094C52.7157 2.0605 47.3842 1 42 1L41 1V2V42V43H42H82Z" fill="#14B8A6" stroke="#FEFEFE" stroke-width="2"/>
    <path d="M1 42V43H2H42H43V42V2V1L42 1C36.6158 1 31.2843 2.0605 26.31 4.12094C21.3357 6.18138 16.8158 9.20143 13.0086 13.0086C9.20143 16.8158 6.18138 21.3357 4.12094 26.31C2.0605 31.2843 1 36.6158 1 42Z" fill="#F87171" stroke="#FEFEFE" stroke-width="2"/>
    <path d="M13.0086 13.0086L12.3015 13.7157L13.0086 14.4228L41.2928 42.7071L43 44.4142V42V2V1H42C31.1261 1 20.6976 5.31963 13.0086 13.0086Z" fill="#FBBF24" stroke="#FEFEFE" stroke-width="2"/>
    <path d="M70.9911 14.4228L71.6982 13.7157L70.9911 13.0086C63.3024 5.31963 52.8739 1 42 1H41V2V42V44.4142L42.7071 42.7071L70.9911 14.4228Z" fill="#2DD4BF" stroke="#FEFEFE" stroke-width="2"/>
    <path d="M14 42C14 26.536 26.536 14 42 14C57.464 14 70 26.536 70 42H14Z" fill="#FEFEFE"/>
    <path d="M71.3971 27.2023C72.0264 26.8031 72.229 25.9788 71.8564 25.3334C71.4838 24.6881 70.6686 24.4513 70.0082 24.7967L42.8102 39.024L45.4769 43.6428L71.3971 27.2023Z" fill="#285D8D"/>
    <path d="M42 52C47.5228 52 52 47.5228 52 42C52 36.4772 47.5228 32 42 32C36.4772 32 32 36.4772 32 42C32 47.5228 36.4772 52 42 52Z" fill="#285D8D" stroke="#FEFEFE" stroke-width="4"/>
    <circle cx="8" cy="42" r="6" fill="#F87171"/>
    <circle cx="76" cy="42" r="6" fill="#14B8A6"/>
</svg>
