<svg xmlns="http://www.w3.org/2000/svg" width="216" height="101" viewBox="0 0 216 101" fill="none">
    <path d="M40.0144 27.4902H30.1213V84.6248H40.0144V27.4902Z" fill="white"/>
    <path d="M4.87474 41.0268V45.393H0V52.8174H4.87474V84.6243H14.6242V52.8174H22.1895V45.393H14.6242V41.0268C14.6242 36.8043 17.6813 35.1334 21.6076 35.1334C22.2613 35.1334 22.7715 35.2052 22.9188 35.2052V27.4898C22.1177 27.3461 20.7346 27.2705 19.7181 27.2705C11.1325 27.2705 4.87474 31.5649 4.87474 41.0268Z" fill="white"/>
    <path d="M64.5619 44.5195C53.1384 44.5195 46.3743 52.9608 46.3743 64.9706C46.3743 76.9804 53.214 85.4973 66.1642 85.4973C71.84 85.4973 77.3685 84.333 80.641 82.6584L77.8031 75.234C75.037 76.6894 70.8197 77.71 66.8897 77.71C61.1421 77.71 56.9211 74.8711 56.0482 69.1213L81.2948 65.7002C81.4384 64.5359 81.4384 63.4434 81.4384 62.3547C81.4384 51.6566 75.3997 44.5233 64.5582 44.5233L64.5619 44.5195ZM55.3944 62.8613C55.5418 55.5125 59.1771 51.7247 64.3428 51.7247C68.9265 51.7247 71.8363 54.7073 71.8363 60.6045L55.3944 62.8613Z" fill="white"/>
    <path d="M122.106 45.3926H110.978L103.771 57.9127H103.628L96.4971 45.3926H85.2928L97.5892 64.3165L84.2007 84.6239H95.6242L103.628 71.015H103.771L111.851 84.6239H123.27L109.886 64.3165L122.106 45.3926Z" fill="white"/>
    <path d="M123.486 64.3923C123.486 76.1828 130.326 83.0969 140.29 83.0969C142.837 83.0969 145.675 82.5865 147.565 81.7133V84.1138C147.565 89.5724 144.874 92.555 139.051 92.555C134.686 92.555 130.613 91.5344 127.99 90.1546L125.152 97.9419C128.72 99.6884 133.81 101 140.067 101C150.618 101 157.382 95.1785 157.382 84.1138V47.3585C154.182 45.7557 149.088 44.5195 143.559 44.5195C131.263 44.5195 123.478 51.1425 123.478 64.3885L123.486 64.3923ZM147.569 74.5082C146.405 75.0903 144.22 75.6007 142.403 75.6007C136.946 75.6007 133.383 71.741 133.383 64.0256C133.383 55.8035 137.237 52.1632 142.694 52.1632C144.731 52.1632 146.548 52.5261 147.569 52.9646V74.5082Z" fill="white"/>
    <path d="M181.707 44.5195C170.283 44.5195 163.519 52.9608 163.519 64.9706C163.519 76.9804 170.359 85.4973 183.309 85.4973C188.985 85.4973 194.513 84.333 197.786 82.6584L194.948 75.234C192.182 76.6894 187.965 77.71 184.035 77.71C178.287 77.71 174.066 74.8711 173.193 69.1213L198.44 65.7002C198.583 64.5359 198.583 63.4434 198.583 62.3547C198.583 51.6566 192.545 44.5233 181.703 44.5233L181.707 44.5195ZM172.539 62.8613C172.687 55.5125 176.322 51.7247 181.488 51.7247C186.071 51.7247 188.981 54.7073 188.981 60.6045L172.539 62.8613Z" fill="white"/>
    <path d="M212.316 6.53182L191.849 0.139434C189.824 -0.491866 188.165 1.08071 188.165 3.63994V26.4121C188.165 28.9713 188.977 30.5704 191.849 31.5532L200 34.4791C200 34.4791 201.387 34.929 201.818 35.3713C202.336 35.9005 202.611 36.6225 202.611 37.3635V43.684C202.611 44.3493 203.352 44.7463 203.908 44.3758C203.908 44.3758 211.129 39.7488 213.604 38.1422C213.827 37.9985 214.054 37.8738 214.265 37.7075C215.248 36.9325 216 35.7228 216 34.4413V11.8657C216 9.30652 214.341 7.15934 212.316 6.52804V6.53182Z" fill="white"/>
    <path d="M188.441 34.6717C185.384 33.9572 184.575 32.7211 184.518 29.4625V7.48419C184.518 7.46151 184.526 7.4426 184.526 7.41992C182.602 7.9794 181.178 9.74477 181.178 11.8428V33.8211C181.178 36.3652 183.26 38.4481 185.803 38.4481H198.443C198.443 36.9927 188.611 34.7133 188.444 34.6755L188.441 34.6717Z" fill="white"/>
</svg>