<svg width="16" height="16" viewBox="0 0 16 16" fill="none" xmlns="http://www.w3.org/2000/svg">
<g clip-path="url(#clip0_1310_4332)">
<path d="M7.99995 3.33321C7.99925 3.06704 7.9454 2.80369 7.8416 2.55859C7.7378 2.3135 7.5861 2.09159 7.3954 1.90588C7.20475 1.72016 6.9789 1.57438 6.73115 1.47707C6.4834 1.37976 6.21875 1.33288 5.95265 1.33918C5.68655 1.34548 5.42435 1.40484 5.1815 1.51376C4.93864 1.62269 4.71996 1.779 4.53829 1.97353C4.35661 2.16806 4.21559 2.3969 4.1235 2.64663C4.03141 2.89637 3.99009 3.16197 4.00197 3.42788C3.6101 3.52864 3.2463 3.71724 2.93812 3.97942C2.62994 4.24159 2.38546 4.57046 2.22319 4.94111C2.06093 5.31175 1.98514 5.7145 2.00156 6.11875C2.01798 6.52305 2.12618 6.9183 2.31797 7.27455C1.98075 7.5485 1.71558 7.9007 1.54553 8.3005C1.37547 8.7003 1.30567 9.1356 1.34221 9.56855C1.37875 10.0014 1.52051 10.4189 1.75517 10.7845C1.98983 11.1502 2.31027 11.453 2.68863 11.6665C2.60627 12.3037 2.75675 12.9493 3.11239 13.4844C3.46802 14.0195 4.00491 14.4082 4.62431 14.579C5.2437 14.7499 5.90395 14.6913 6.4836 14.4142C7.06325 14.137 7.5234 13.6599 7.7793 13.0705C7.8265 12.9527 7.8631 12.8309 7.88865 12.7065C7.9073 12.6199 8.09265 12.6199 8.11195 12.7065C8.1373 12.8308 8.17365 12.9527 8.22065 13.0705C8.47655 13.6599 8.93665 14.137 9.51635 14.4142C10.096 14.6913 10.7563 14.7499 11.3757 14.579C11.995 14.4082 12.5319 14.0195 12.8876 13.4844C13.2432 12.9493 13.3937 12.3037 13.3113 11.6665C13.6897 11.453 14.0101 11.1502 14.2448 10.7845C14.4794 10.4189 14.6212 10.0014 14.6578 9.56855C14.6943 9.1356 14.6244 8.7003 14.4544 8.3005C14.2844 7.9007 14.0192 7.5485 13.6819 7.27455C13.8737 6.9183 13.9819 6.52305 13.9984 6.11875C14.0148 5.7145 13.939 5.31175 13.7767 4.94111C13.6145 4.57046 13.37 4.24159 13.0618 3.97942C12.7536 3.71724 12.3898 3.52864 11.9979 3.42788C12.0098 3.16197 11.9685 2.89637 11.8764 2.64663C11.7843 2.3969 11.6433 2.16806 11.4616 1.97353C11.28 1.779 11.0613 1.62269 10.8184 1.51376C10.5756 1.40484 10.3134 1.34548 10.0473 1.33918C9.7812 1.33288 9.51655 1.37976 9.2688 1.47707C9.02105 1.57438 8.7952 1.72016 8.6045 1.90588C8.41385 2.09159 8.26215 2.3135 8.15835 2.55859C8.05455 2.80369 8.0007 3.06704 7.99995 3.33321Z" fill="url(#paint0_linear_1310_4332)" stroke="#EC4899" stroke-width="2" stroke-linecap="round" stroke-linejoin="round"/>
<path d="M11.7327 4.33341C11.894 4.0538 11.9853 3.73929 11.9987 3.41675" stroke="#DB2777" stroke-width="2" stroke-linecap="round" stroke-linejoin="round"/>
<path d="M4.00195 3.41675C4.01513 3.73923 4.10617 4.05374 4.26728 4.33341" stroke="#DB2777" stroke-width="2" stroke-linecap="round" stroke-linejoin="round"/>
<path d="M2.31812 7.264C2.44008 7.16465 2.57059 7.07635 2.70812 7" stroke="#DB2777" stroke-width="2" stroke-linecap="round" stroke-linejoin="round"/>
<path d="M13.292 7C13.4295 7.07635 13.56 7.16465 13.682 7.264" stroke="#DB2777" stroke-width="2" stroke-linecap="round" stroke-linejoin="round"/>
<path d="M4.00006 12C3.54061 12.0002 3.0889 11.8817 2.68872 11.656" stroke="#DB2777" stroke-width="2" stroke-linecap="round" stroke-linejoin="round"/>
<path d="M13.3113 11.656C12.9111 11.8817 12.4595 12.0002 12 12" stroke="#DB2777" stroke-width="2" stroke-linecap="round" stroke-linejoin="round"/>
<path d="M8 10C9.10455 10 10 9.10455 10 8C10 6.89545 9.10455 6 8 6C6.89545 6 6 6.89545 6 8C6 9.10455 6.89545 10 8 10Z" stroke="#DB2777" stroke-width="2" stroke-linecap="round" stroke-linejoin="round"/>
<path d="M10.4667 6.93335L9.8667 7.2" stroke="#DB2777" stroke-width="2" stroke-linecap="round" stroke-linejoin="round"/>
<path d="M6.13345 8.80005L5.53345 9.0667" stroke="#DB2777" stroke-width="2" stroke-linecap="round" stroke-linejoin="round"/>
<path d="M9.0667 10.4667L8.80005 9.8667" stroke="#DB2777" stroke-width="2" stroke-linecap="round" stroke-linejoin="round"/>
<path d="M7.2 6.13345L6.93335 5.53345" stroke="#DB2777" stroke-width="2" stroke-linecap="round" stroke-linejoin="round"/>
<path d="M10.4667 9.00005L9.8667 8.7334" stroke="#DB2777" stroke-width="2" stroke-linecap="round" stroke-linejoin="round"/>
<path d="M6.13345 7.26665L5.53345 7" stroke="#DB2777" stroke-width="2" stroke-linecap="round" stroke-linejoin="round"/>
<path d="M7 10.4667L7.26665 9.8667" stroke="#DB2777" stroke-width="2" stroke-linecap="round" stroke-linejoin="round"/>
<path d="M8.7334 6.13345L9.00005 5.53345" stroke="#DB2777" stroke-width="2" stroke-linecap="round" stroke-linejoin="round"/>
</g>
<defs>
<linearGradient id="paint0_linear_1310_4332" x1="7.99995" y1="0.987663" x2="7.99995" y2="15.026" gradientUnits="userSpaceOnUse">
<stop stop-color="#F472B6"/>
<stop offset="0.995" stop-color="#FCE7F3"/>
</linearGradient>
<clipPath id="clip0_1310_4332">
<rect width="16" height="16" fill="white"/>
</clipPath>
</defs>
</svg>
