<svg width="16" height="16" viewBox="0 0 16 16" fill="none" xmlns="http://www.w3.org/2000/svg">
<g clip-path="url(#clip0_1297_3462)">
<path d="M7.99992 14.6667C11.6818 14.6667 14.6666 11.6819 14.6666 8C14.6666 4.31811 11.6818 1.33334 7.99992 1.33334C4.31802 1.33334 1.33325 4.31811 1.33325 8C1.33325 11.6819 4.31802 14.6667 7.99992 14.6667Z" fill="url(#paint0_linear_1297_3462)" stroke="#D97706" stroke-width="2"/>
<path d="M7.88318 6.08628C7.89469 6.06015 7.9116 6.03836 7.93215 6.02318C7.95269 6.00801 7.97612 6 7.99998 6C8.02385 6 8.04727 6.00801 8.06782 6.02318C8.08836 6.03836 8.10527 6.06015 8.11678 6.08628L8.90398 7.95428C8.92276 7.99754 8.94896 8.03506 8.9807 8.06415C9.01245 8.09325 9.04896 8.1132 9.08761 8.12257C9.12626 8.13194 9.16608 8.13049 9.20423 8.11834C9.24238 8.10619 9.2779 8.08363 9.30825 8.05228L10.4488 6.83095C10.4707 6.80869 10.4977 6.79569 10.5258 6.79382C10.554 6.79194 10.582 6.8013 10.6056 6.82053C10.6293 6.83976 10.6474 6.86788 10.6575 6.90084C10.6675 6.93381 10.669 6.96991 10.6616 7.00395L9.90585 10.4193C9.89042 10.4892 9.85719 10.5509 9.81118 10.595C9.76518 10.6392 9.70891 10.6634 9.65092 10.6639H6.34932C6.29127 10.6634 6.23495 10.6393 6.18889 10.5951C6.14283 10.551 6.10955 10.4892 6.09412 10.4193L5.33865 7.00428C5.33125 6.97024 5.33268 6.93414 5.34274 6.90118C5.3528 6.86822 5.37096 6.8401 5.39462 6.82086C5.41828 6.80163 5.44621 6.79228 5.47439 6.79415C5.50258 6.79602 5.52956 6.80902 5.55145 6.83128L6.69172 8.05261C6.72206 8.08396 6.75758 8.10652 6.79573 8.11867C6.83388 8.13083 6.87371 8.13227 6.91236 8.1229C6.951 8.11353 6.98751 8.09358 7.01926 8.06449C7.05101 8.03539 7.07721 7.99787 7.09598 7.95461L7.88318 6.08628Z" stroke="#D97706" stroke-width="1.4" stroke-linecap="round" stroke-linejoin="round"/>
</g>
<defs>
<linearGradient id="paint0_linear_1297_3462" x1="7.99992" y1="0.982461" x2="7.99992" y2="15.0175" gradientUnits="userSpaceOnUse">
<stop stop-color="#F59E0B"/>
<stop offset="0.5" stop-color="#FCD34D"/>
<stop offset="0.995" stop-color="#FFFBEB"/>
</linearGradient>
<clipPath id="clip0_1297_3462">
<rect width="16" height="16" fill="white"/>
</clipPath>
</defs>
</svg>
