<svg width="16" height="16" viewBox="0 0 16 16" fill="none" xmlns="http://www.w3.org/2000/svg">
<path d="M5.66659 9.66667C6.10861 9.66667 6.53254 9.49107 6.8451 9.17851C7.15766 8.86595 7.33325 8.44203 7.33325 8C7.33325 7.08 6.99992 6.66667 6.66658 6C5.95192 4.57133 6.51725 3.29733 7.99992 2C8.33325 3.66667 9.33325 5.26667 10.6666 6.33333C11.9999 7.4 12.6666 8.66667 12.6666 10C12.6666 10.6128 12.5459 11.2197 12.3114 11.7859C12.0768 12.352 11.7331 12.8665 11.2997 13.2998C10.8664 13.7332 10.352 14.0769 9.78577 14.3114C9.21959 14.546 8.61275 14.6667 7.99992 14.6667C7.38708 14.6667 6.78025 14.546 6.21406 14.3114C5.64788 14.0769 5.13343 13.7332 4.70009 13.2998C4.26675 12.8665 3.923 12.352 3.68848 11.7859C3.45396 11.2197 3.33325 10.6128 3.33325 10C3.33325 9.23133 3.62192 8.47067 3.99992 8C3.99992 8.44203 4.17551 8.86595 4.48807 9.17851C4.80063 9.49107 5.22456 9.66667 5.66659 9.66667Z" fill="url(#paint0_linear_1310_4529)" stroke="#F59E0B" stroke-width="2.4" stroke-linecap="round" stroke-linejoin="round"/>
<defs>
<linearGradient id="paint0_linear_1310_4529" x1="7.99992" y1="1.66667" x2="7.99992" y2="15" gradientUnits="userSpaceOnUse">
<stop stop-color="#FDE68A"/>
<stop offset="0.995" stop-color="#FFFBEB"/>
</linearGradient>
</defs>
</svg>
