<svg width="360" height="484" viewBox="0 0 360 484" fill="none" xmlns="http://www.w3.org/2000/svg">
<g clip-path="url(#clip0_292_18)">
<mask id="mask0_292_18" style="mask-type:luminance" maskUnits="userSpaceOnUse" x="0" y="0" width="360" height="484">
<path d="M360 0H0V484H360V0Z" fill="white"/>
</mask>
<g mask="url(#mask0_292_18)">
<g style="mix-blend-mode:overlay" opacity="0.1">
<path d="M736.802 763.958C738.383 724.332 738.383 685.155 736.895 646.576L180.93 705.192V705.042L727.409 530.24C722.666 491.511 716.342 453.68 708.53 416.895L180.837 704.893V704.743L680.536 308.485C669.748 273.345 657.472 239.401 643.987 206.953L180.744 704.594C180.744 704.594 180.744 704.444 180.651 704.444L599.532 113.795C583.442 84.3372 566.237 56.6738 547.916 30.8049L180.558 704.295C180.558 704.295 180.465 704.295 180.465 704.145L490.068 -40.8207C469.887 -62.5028 448.776 -82.0914 426.827 -99.5866L180.372 703.996H180.279L359.401 -144.446C336.522 -156.857 312.993 -167.025 288.905 -174.651L180.186 703.846H180.093L216.55 -189.904C191.904 -192.446 167.538 -192.446 143.543 -190.053L179.907 703.846H179.814L71.0948 -174.801C47.0073 -167.175 23.4778 -157.007 0.599365 -144.446L179.721 703.996H179.628L-66.827 -99.4371C-88.6824 -82.0914 -109.794 -62.3533 -129.975 -40.6712L179.535 704.145C179.535 704.145 179.442 704.145 179.442 704.295L-187.915 30.8049C-206.237 56.5243 -223.442 84.3372 -239.532 113.795L179.349 704.444C179.349 704.444 179.349 704.594 179.256 704.594L-284.079 206.803C-297.565 239.252 -309.748 273.195 -320.629 308.485L179.163 704.743V704.893L-348.53 416.895C-356.249 453.68 -362.573 491.511 -367.316 530.24L179.07 705.042V705.192L-376.802 646.576C-378.383 686.202 -378.383 725.379 -376.895 763.958L179.07 705.491V705.641L-367.409 880.443C-362.666 919.172 -356.342 957.003 -348.53 993.788L179.163 705.79V705.94L-320.536 1102.2C-309.748 1137.34 -297.472 1171.28 -283.986 1203.73L179.256 706.089C179.256 706.089 179.256 706.239 179.349 706.239L-239.532 1296.89C-223.442 1326.35 -206.237 1354.01 -187.915 1379.88L179.442 706.388C179.442 706.388 179.535 706.388 179.535 706.538L-130.068 1451.5C-109.887 1473.19 -88.7755 1492.77 -66.827 1510.27L179.628 706.687H179.721L0.599365 1555.13C23.4778 1567.54 47.0073 1577.71 71.0948 1585.33L179.814 706.837H179.907L143.45 1600.59C168.096 1603.13 192.462 1603.13 216.457 1600.74L180.093 706.837H180.186L288.905 1585.48C312.993 1577.86 336.522 1567.69 359.401 1555.13L180.279 706.687H180.372L426.827 1510.12C448.683 1492.77 469.794 1473.04 489.975 1451.35L180.465 706.538C180.465 706.538 180.558 706.538 180.558 706.388L547.916 1379.88C566.237 1354.01 583.442 1326.35 599.532 1296.89L180.651 706.239C180.651 706.239 180.651 706.089 180.744 706.089L644.08 1203.88C657.565 1171.43 669.748 1137.49 680.629 1102.2L180.837 705.94V705.79L708.53 993.788C716.249 957.003 722.573 919.172 727.316 880.443L180.93 705.641V705.491L736.802 763.958Z" fill="url(#paint0_radial_292_18)"/>
</g>
</g>
</g>
<defs>
<radialGradient id="paint0_radial_292_18" cx="0" cy="0" r="1" gradientUnits="userSpaceOnUse" gradientTransform="translate(180 705.341) scale(65.1013 104.672)">
<stop stop-color="#000C18"/>
<stop offset="1" stop-color="white" stop-opacity="0.5"/>
</radialGradient>
<clipPath id="clip0_292_18">
<rect width="360" height="484" fill="white"/>
</clipPath>
</defs>
</svg>
