<svg width="360" height="240" viewBox="0 0 360 240" fill="none" xmlns="http://www.w3.org/2000/svg">
<path opacity="0.2" d="M526.682 255.725C517.121 265.371 518.461 281.275 529.501 289.174C533.372 291.939 537.862 293.3 542.34 293.3C548.106 293.3 553.851 291.04 558.126 286.644L587 257.04V338.41L481.335 306.792C462.857 301.272 455.268 279.228 466.427 263.493L537.807 162.823C547.228 149.544 533.745 132.105 518.527 137.883L426.634 172.736C405.38 180.806 382.627 165.096 382.627 142.362V-57.7365C382.627 -73.2551 362.038 -78.6903 354.376 -65.1951L247.156 123.671C238.218 139.415 217.124 143.091 203.386 131.291L92.468 36.0312C77.3231 23.0312 54.5799 37.9179 60.4434 57.0062L108.843 214.449C113.966 231.147 98.7994 246.987 81.8984 242.594L-51 207.978V172.791L8.86871 190.111C29.0173 195.941 47.8262 177.561 42.4457 157.285L-39.3702 -151H2.86847L209.848 43.4077C227.499 59.9866 255.996 55.8183 268.152 34.8767L376.086 -151H455.794L463.307 96.7931C463.951 117.811 485.032 132.002 504.753 124.671L587 94.0923V194.86L526.682 255.725Z" fill="#001D37"/>
<path opacity="0.2" d="M8.86871 190.111L-51 172.791V128.42L-49.3503 128.818C-29.3718 133.651 -11.5716 115.237 -17.0675 95.4442L-51 -26.666V-151H-39.3702L42.4488 157.282C47.8292 177.558 29.0204 195.941 8.87175 190.108L8.86871 190.111Z" fill="#164B7B"/>
<path opacity="0.2" d="M376.086 -151L268.149 34.8767C255.996 55.8183 227.496 59.9896 209.845 43.4077L2.86542 -151H40.5287L173.792 -20.7265C186.792 -8.01509 208.271 -10.877 217.498 -26.5475L290.731 -151H376.086Z" fill="#164B7B"/>
<path opacity="0.2" d="M587 338.41V391.397L432.388 340.865C417.213 335.904 411.113 317.705 420.245 304.608L478.731 220.72C487.241 208.513 474.508 192.77 460.791 198.524L393.422 226.787C379.884 232.469 364.946 222.531 364.946 207.86V62.08C364.946 49.6147 348.172 45.5953 342.525 56.7117L282.644 174.562C274.991 189.619 255.635 194.155 242.1 184.069L192.616 147.21C180.579 138.239 164.118 149.924 168.597 164.242L210.984 299.765C217.103 319.346 199.26 337.985 179.43 332.723L-51 271.554V207.975L81.8984 242.595C98.7994 246.988 113.966 231.147 108.843 214.45L60.4434 57.0064C54.5799 37.9181 77.3231 23.0314 92.468 36.0314L203.386 131.291C217.127 143.091 238.218 139.415 247.156 123.671L354.376 -65.1949C362.038 -78.6871 382.627 -73.255 382.627 -57.7364V142.362C382.627 165.093 405.38 180.806 426.634 172.737L518.527 137.884C533.745 132.108 547.228 149.544 537.807 162.823L466.427 263.494C455.271 279.228 462.857 301.272 481.335 306.793L587 338.41Z" fill="#164B7B"/>
<path opacity="0.2" d="M587 393.397V447.147L383.976 358.9C375.22 355.096 372.176 344.195 377.706 336.403L401.831 302.364C408.98 292.277 398.371 279.171 387.02 284.059L377.502 288.155C362.059 294.811 344.846 283.482 344.846 266.654V203.516C344.846 190.592 327.267 186.701 321.814 198.416L300.86 243.461C297.688 250.258 290.989 254.146 284.078 254.146C280.702 254.146 277.272 253.214 274.186 251.254C268.602 247.696 261.647 253.077 263.671 259.378L299.681 371.207C305.116 388.066 289.637 404.216 272.566 399.513L-51 310.424V273.557L179.43 334.723C199.257 339.985 217.103 321.346 210.984 301.765L168.597 166.242C164.115 151.924 180.579 140.242 192.616 149.211L242.1 186.069C255.638 196.155 274.994 191.619 282.644 176.562L342.525 58.7118C348.172 47.5984 364.946 51.6178 364.946 64.0801V209.86C364.946 224.531 379.887 234.469 393.422 228.787L460.791 200.524C474.511 194.77 487.241 210.513 478.731 222.72L420.245 306.608C411.113 319.705 417.213 337.904 432.388 342.865L587 393.397Z" fill="#00305B"/>
<path opacity="0.2" d="M587 446.007V488H577.719L368.017 378.85C360.385 374.871 352.957 384.486 358.693 390.906L372.583 406.488C381.661 416.661 371.93 432.427 358.812 428.823L120.74 363.495C100.419 357.914 85.0398 381.916 98.5229 398.154L107.728 409.253C118.681 422.428 106.249 441.922 89.7337 437.481L-51 399.648V308.824L272.566 398.209C289.64 402.931 305.116 386.723 299.681 369.808L263.671 257.603C261.644 251.281 268.602 245.882 274.186 249.452C277.272 251.421 280.702 252.354 284.078 252.354C290.989 252.354 297.688 248.449 300.86 241.633L321.814 196.436C327.27 184.682 344.846 188.587 344.846 201.554V264.904C344.846 281.788 362.059 293.153 377.502 286.477L387.02 282.368C398.371 277.463 408.98 290.616 401.831 300.734L377.706 334.887C372.176 342.706 375.22 353.64 383.976 357.46L587 446.004V446.007Z" fill="#001D37"/>
</svg>
